<svg xmlns="http://www.w3.org/2000/svg" xmlns:xlink="http://www.w3.org/1999/xlink" width="671.225" height="515.166" viewBox="0 0 671.225 515.166">
  <defs>
    <filter id="Path_11" x="262.363" y="169.006" width="146.563" height="163.544" filterUnits="userSpaceOnUse">
      <feOffset dy="3" input="SourceAlpha"/>
      <feGaussianBlur stdDeviation="10" result="blur"/>
      <feFlood/>
      <feComposite operator="in" in2="blur"/>
      <feComposite in="SourceGraphic"/>
    </filter>
    <filter id="Path_9" x="93.751" y="19" width="207.723" height="163.544" filterUnits="userSpaceOnUse">
      <feOffset dy="3" input="SourceAlpha"/>
      <feGaussianBlur stdDeviation="10" result="blur-2"/>
      <feFlood/>
      <feComposite operator="in" in2="blur-2"/>
      <feComposite in="SourceGraphic"/>
    </filter>
    <filter id="Path_8" x="372.549" y="19" width="222.219" height="163.544" filterUnits="userSpaceOnUse">
      <feOffset dy="3" input="SourceAlpha"/>
      <feGaussianBlur stdDeviation="10" result="blur-3"/>
      <feFlood/>
      <feComposite operator="in" in2="blur-3"/>
      <feComposite in="SourceGraphic"/>
    </filter>
    <filter id="Path_10" x="71.98" y="338.924" width="527.328" height="163.544" filterUnits="userSpaceOnUse">
      <feOffset dy="3" input="SourceAlpha"/>
      <feGaussianBlur stdDeviation="10" result="blur-4"/>
      <feFlood/>
      <feComposite operator="in" in2="blur-4"/>
      <feComposite in="SourceGraphic"/>
    </filter>
  </defs>
  <g id="Group_3" data-name="Group 3" transform="translate(-421 -324)">
    <g id="message" transform="translate(420.997 264.479)">
      <path id="Path_1" data-name="Path 1" d="M659.055,539.1a23.409,23.409,0,0,1-23.409,23.409H30.907A23.408,23.408,0,0,1,7.5,539.1V90.422A23.408,23.408,0,0,1,30.907,67.015h604.74a23.408,23.408,0,0,1,23.409,23.407V539.1Z" transform="translate(2.331 2.33)" fill="#149334"/>
      <path id="Path_2" data-name="Path 2" d="M188.3,224.953A359.143,359.143,0,0,1,224.647,67.02H30.911A23.41,23.41,0,0,0,7.5,90.427V539.109A23.409,23.409,0,0,0,30.91,562.518H421.764c-136.42-51.424-233.472-183.156-233.472-337.55Z" transform="translate(2.332 2.332)" fill="#0d7c24"/>
      <path id="Path_3" data-name="Path 3" d="M558.363,67.021H256v495.5H558.363a23.408,23.408,0,0,0,23.409-23.409V90.427A23.406,23.406,0,0,0,558.363,67.02Z" transform="translate(79.609 2.332)" fill="#3bbc56"/>
      <path id="Path_4" data-name="Path 4" d="M256,456.486h88.492A360,360,0,0,1,256,407.981Z" transform="translate(79.609 108.363)" fill="#29a53d"/>
      <g id="Group_1" data-name="Group 1" transform="translate(9.831 165.04)">
        <path id="Path_5" data-name="Path 5" d="M533.19,140.01H426.613a14.368,14.368,0,0,0-14.371,14.368V429.762a14.371,14.371,0,0,0,14.371,14.368H533.19Z" transform="translate(118.365 -140.01)" fill="#5ccc2e"/>
        <path id="Path_6" data-name="Path 6" d="M7.5,140.01H114.077a14.37,14.37,0,0,1,14.371,14.368V429.762a14.372,14.372,0,0,1-14.371,14.368H7.5Z" transform="translate(-7.5 -140.01)" fill="#5ccc2e"/>
        <circle id="Ellipse_1" data-name="Ellipse 1" cx="108.267" cy="108.267" r="108.267" transform="translate(217.51 43.78)" fill="#5ccc2e"/>
      </g>
      <path id="Path_7" data-name="Path 7" d="M637.972,59.521h-508.2a9.832,9.832,0,0,0,0,19.665h196V199.413a118.1,118.1,0,0,0,0,235.374V555.012H33.245a13.592,13.592,0,0,1-13.576-13.576V478.992h96.743a24.228,24.228,0,0,0,24.2-24.2V179.408a24.228,24.228,0,0,0-24.2-24.2H19.669V92.763A13.591,13.591,0,0,1,33.245,79.188H95.69a9.832,9.832,0,0,0,0-19.665H33.245A33.278,33.278,0,0,0,0,92.763V541.445a33.28,33.28,0,0,0,33.242,33.242h604.74a33.28,33.28,0,0,0,33.242-33.242V92.763a33.279,33.279,0,0,0-33.244-33.24ZM116.4,174.871a4.542,4.542,0,0,1,4.537,4.535V454.789a4.542,4.542,0,0,1-4.537,4.535H19.657V174.869H116.4Zm229.027,160.87a21.072,21.072,0,0,0,0-37.285v-79.3a98.434,98.434,0,0,1,0,195.883v-79.3ZM237.161,317.1a98.57,98.57,0,0,1,88.6-97.942v79.3a21.072,21.072,0,0,0,0,37.285v79.3a98.569,98.569,0,0,1-88.6-97.942Zm400.8,237.916H345.434V434.792a118.1,118.1,0,0,0,0-235.374V79.191H637.966a13.591,13.591,0,0,1,13.576,13.575V155.21H554.8a24.229,24.229,0,0,0-24.2,24.2v26.252a9.832,9.832,0,1,0,19.665,0V179.411a4.542,4.542,0,0,1,4.537-4.535h96.743V459.332H554.8a4.542,4.542,0,0,1-4.537-4.535V239.745a9.832,9.832,0,1,0-19.665,0V454.784a24.228,24.228,0,0,0,24.2,24.2h96.743v62.444A13.592,13.592,0,0,1,637.964,555Z" fill="#231f20"/>
    </g>
    <g transform="matrix(1, 0, 0, 1, 421, 324)" filter="url(#Path_11)">
      <path id="Path_11-2" data-name="Path 11" d="M-7.753-78H29.108v11.045H22.757L47.056,14.5h6.9V25.544H24.69V14.5h9.664L28-6.762H-6.649L-13,14.5h9.664V25.544H-32.6V14.5h6.9L-1.4-66.955H-7.753ZM10.608-64.884-3.336-17.806H24.69Z" transform="translate(324.97 274.01)" fill="#fff"/>
    </g>
    <g id="Group_2" data-name="Group 2" transform="translate(708.792 372.163)">
      <g id="Ellipse_2" data-name="Ellipse 2" transform="translate(0.208 -0.163)" fill="#fff" stroke="#707070" stroke-width="1">
        <ellipse cx="47" cy="47.5" rx="47" ry="47.5" stroke="none"/>
        <ellipse cx="47" cy="47.5" rx="46.5" ry="47" fill="none"/>
      </g>
      <path id="Icon_ionic-md-football" data-name="Icon ionic-md-football" d="M51,3.375A47.621,47.621,0,1,0,98.618,51,47.673,47.673,0,0,0,51,3.375ZM21.462,46.921l8.975,4.1,3.915,15.317L30.78,73.044l-13.1-.16a39.987,39.987,0,0,1-6.3-17.24ZM71.213,73.044l-3.572-6.708L71.556,51l8.952-4.075,10.074,8.723a39.7,39.7,0,0,1-6.3,17.24Zm7.418-33.472-9.982,4.487L54.66,32.245V21.439l10.967-7.464A40.824,40.824,0,0,1,82.935,27.209ZM36.183,14,47.1,21.439V32.245L33.138,44.036l-9.845-4.487L19.012,27.277A39.65,39.65,0,0,1,36.183,14Zm6.2,75.92c-.16-.046-.3-.069-.458-.114L37.237,77.188,40.6,70.457H61.391l3.434,6.937-4.533,12.34c-.229.046-.458.114-.687.16a57.72,57.72,0,0,1-9.25.939A38.821,38.821,0,0,1,42.388,89.918Z" transform="translate(-3.375 -2.946)"/>
    </g>
    <g transform="matrix(1, 0, 0, 1, 421, 324)" filter="url(#Path_9)">
      <path id="Path_9-2" data-name="Path 9" d="M7.006-45.418H-4.453V-57.567l-8.284-8.56H-33.859l-7.179,7.317v19.052l6.765,6.9H-5.557L8.387-18.221V10.357L-5.971,25.544H-40.762L-55.12,10.357v-17.4h11.459V5.111l8.422,8.56h23.884l7.041-7.317V-14.217l-6.627-6.765H-39.657L-53.739-35.754V-62.814L-39.381-78h32.03L7.006-62.814ZM81.558-7.038H92.6v17.4L78.244,25.544H43.454L29.1,10.357V-62.814L43.454-78H78.244L92.6-62.814v17.4H81.558V-57.153l-8.7-8.974H48.976L41.8-58.81V6.354l7.041,7.317H72.722L81.558,4.7Z" transform="translate(178.87 124)" fill="#fff"/>
    </g>
    <g transform="matrix(1, 0, 0, 1, 421, 324)" filter="url(#Path_8)">
      <path id="Path_8-2" data-name="Path 8" d="M-61.1-78H-5.877L8.481-62.814v30.373L-5.877-17.254,8.9,14.5h7.179V25.544H-9.88V14.5H-4.5L-19.268-17.254H-38.735V14.5h8.284V25.544H-61.1V14.5h9.664V-66.955H-61.1Zm22.365,11.873v37H-11.4l8.007-8.145V-57.982l-7.869-8.145ZM35.4-78h65.716v27.059H90.074V-66.955H57.768v35.2H90.074v11.045H57.768V14.5H90.074V-1.516h11.045V25.544H35.4V14.5h9.664V-66.955H35.4Z" transform="translate(463.65 124)" fill="#fff"/>
    </g>
    <g transform="matrix(1, 0, 0, 1, 421, 324)" filter="url(#Path_10)">
      <path id="Path_10-2" data-name="Path 10" d="M-176.02-78h28.164l26.093,76.761L-95.67-78h28.164v11.045H-77.17V14.5h9.664V25.544h-32.03V14.5h9.664V-59.638L-115.688,14.5h-12.149l-25.817-74.137V14.5h9.664V25.544h-32.03V14.5h9.664V-66.955h-9.664Zm146.48,0H7.322v11.045H.971L25.269,14.5h6.9V25.544H2.9V14.5h9.664L6.217-6.762H-28.436L-34.786,14.5h9.664V25.544H-54.391V14.5h6.9l24.3-81.455H-29.54Zm18.362,13.116L-25.122-17.806H2.9ZM90.295,25.544H49.982V14.5H63.788V-66.955H43.355v16.015H32.862V-78h74.552v27.059H96.922V-66.955H76.489V14.5H90.295ZM173.682-7.038h11.045v17.4L170.369,25.544H135.578L121.22,10.357V-62.814L135.578-78h34.791l14.358,15.186v17.4H173.682V-57.153l-8.7-8.974H141.1l-7.179,7.317V6.354l7.041,7.317h23.884L173.682,4.7ZM204.055-78h32.03v11.045H226.42v35.2h42.522v-35.2h-9.664V-78h32.03v11.045h-9.664V14.5h9.664V25.544h-32.03V14.5h9.664v-35.2H226.42V14.5h9.664V25.544h-32.03V14.5h9.664V-66.955h-9.664Z" transform="translate(278 443.92)" fill="#fff"/>
    </g>
  </g>
</svg>
