<?xml version="1.0" encoding="UTF-8"?>
<svg enable-background="new 0 0 511.999 511.999" version="1.1" viewBox="0 0 511.999 511.999" xml:space="preserve" xmlns="http://www.w3.org/2000/svg">
<path d="m504.5 427.12c0 9.861-7.994 17.856-17.856 17.856h-461.29c-9.862 0-17.856-7.994-17.856-17.856v-342.25c0-9.861 7.994-17.855 17.856-17.855h461.29c9.862 0 17.856 7.994 17.856 17.855l1e-3 342.25z" fill="#149334"/>
<path d="m145.41 187.49c0-43.211 9.975-84.088 27.728-120.47h-147.78c-9.862 0-17.857 7.995-17.857 17.855v342.25c0 9.861 7.994 17.856 17.856 17.856h298.14c-104.06-39.226-178.09-139.71-178.09-257.48z" fill="#0D7C24"/>
<path d="m486.64 67.021h-230.64v377.96h230.64c9.862 0 17.856-7.994 17.856-17.856v-342.25c2e-3 -9.86-7.993-17.855-17.856-17.855z" fill="#3BBC56"/>
<path d="m256 444.98h67.501c-24.329-9.172-47.017-21.692-67.501-36.999v36.999z" fill="#29A53D"/>
<g fill="#5CCC2E">
	<path d="m504.5 140.01h-81.296c-6.055 0-10.962 4.906-10.962 10.96v210.06c0 6.05 4.906 10.96 10.962 10.96h81.296v-231.98z"/>
	<path d="m7.5 140.01h81.296c6.053 0 10.962 4.906 10.962 10.96v210.06c0 6.05-4.908 10.96-10.962 10.96h-81.296v-231.98z"/>
	<circle cx="256" cy="255.99" r="82.585"/>
</g>
<path d="m486.64 59.521h-387.65c-4.143 0-7.5 3.358-7.5 7.5s3.357 7.5 7.5 7.5h149.51v91.708c-46.177 3.824-82.585 42.624-82.585 89.77s36.408 85.945 82.585 89.771v91.707h-223.14c-5.71 0-10.356-4.646-10.356-10.356v-47.631h73.795c10.181 0 18.462-8.281 18.462-18.46v-210.06c0-10.179-8.281-18.46-18.462-18.46h-73.795v-47.632c0-5.71 4.646-10.355 10.356-10.355h47.632c4.143 0 7.5-3.358 7.5-7.5s-3.357-7.5-7.5-7.5h-47.632c-13.982 0-25.357 11.374-25.357 25.355v342.25c0 13.982 11.375 25.357 25.357 25.357h461.29c13.982 0 25.357-11.375 25.357-25.357v-342.25c0-13.981-11.375-25.355-25.358-25.355zm-397.85 87.988c1.908 0 3.461 1.552 3.461 3.459v210.06c0 1.907-1.553 3.459-3.461 3.459h-73.795v-216.98h73.795zm174.7 122.71c5.101-2.696 8.581-8.048 8.581-14.219 0-6.172-3.48-11.525-8.581-14.222v-60.486c37.893 3.775 67.584 35.838 67.584 74.709s-29.692 70.933-67.584 74.709v-60.491zm-82.585-14.219c0-38.87 29.691-70.933 67.584-74.709v60.487c-5.101 2.696-8.581 8.049-8.581 14.222 0 6.17 3.48 11.522 8.581 14.219v60.49c-37.892-3.775-67.584-35.837-67.584-74.709zm305.73 181.48h-223.14v-91.706c46.177-3.825 82.585-42.624 82.585-89.771s-36.408-85.946-82.585-89.77v-91.708h223.14c5.71 0 10.356 4.645 10.356 10.355v47.632h-73.795c-10.181 0-18.462 8.282-18.462 18.46v20.025c0 4.142 3.357 7.5 7.5 7.5s7.5-3.358 7.5-7.5v-20.025c0-1.907 1.553-3.459 3.461-3.459h73.795v216.98h-73.795c-1.908 0-3.461-1.552-3.461-3.459v-164.04c0-4.142-3.357-7.5-7.5-7.5s-7.5 3.358-7.5 7.5v164.03c0 10.18 8.282 18.46 18.462 18.46h73.795v47.632c0 5.71-4.646 10.355-10.357 10.355z" fill="#231F20"/>
</svg>
